<?xml version="1.0" encoding="UTF-8" standalone="no"?>
<!-- Created with Inkscape (http://www.inkscape.org/) -->

<svg
   xmlns:dc="http://purl.org/dc/elements/1.1/"
   xmlns:cc="http://creativecommons.org/ns#"
   xmlns:rdf="http://www.w3.org/1999/02/22-rdf-syntax-ns#"
   xmlns:svg="http://www.w3.org/2000/svg"
   xmlns="http://www.w3.org/2000/svg"
   xmlns:sodipodi="http://sodipodi.sourceforge.net/DTD/sodipodi-0.dtd"
   xmlns:inkscape="http://www.inkscape.org/namespaces/inkscape"
   version="1.1"
   width="400"
   height="400"
   viewBox="0 0 400 400"
   id="svg2"
   xml:space="preserve"
   inkscape:version="0.48.2 r9819"
   sodipodi:docname="jimmy_logo.svg"><sodipodi:namedview
   pagecolor="#ffffff"
   bordercolor="#666666"
   borderopacity="1"
   objecttolerance="10"
   gridtolerance="10"
   guidetolerance="10"
   inkscape:pageopacity="0"
   inkscape:pageshadow="2"
   inkscape:window-width="640"
   inkscape:window-height="480"
   id="namedview3035"
   showgrid="false"
   inkscape:zoom="0.59"
   inkscape:cx="225.42373"
   inkscape:cy="200"
   inkscape:window-x="410"
   inkscape:window-y="138"
   inkscape:window-maximized="0"
   inkscape:current-layer="svg2" /><metadata
   id="metadata44"><rdf:RDF><cc:Work
       rdf:about=""><dc:format>image/svg+xml</dc:format><dc:type
         rdf:resource="http://purl.org/dc/dcmitype/StillImage" /><dc:title /></cc:Work></rdf:RDF></metadata><defs
   id="defs42">
<inkscape:path-effect
   effect="spiro"
   id="path-effect5065"
   is_visible="true" /><inkscape:path-effect
   effect="spiro"
   id="path-effect5043"
   is_visible="true" /></defs>
<g
   transform="translate(0,300)"
   id="Your_Icon"
   style="display:none">
	<path
   d="m 53.962,6 c 0,0 -2.682,0 -8.009,0 C 42.042,6 36.714,6 29.933,6 13.914,6 14,22.019 14,22.019 v 32.039 c 0,5.866 4,7.431 7,7.851 V 84.633 87.475 96 H 40 V 87.474 84.632 62 H 61.971 C 86,62 86,38.005 86,38.005 86,5.967 53.962,6 53.962,6 z M 24,85 V 62 c 0,0 12.981,-0.042 13,-0.039 0,0.015 0,6.039 0,6.039 h -7 v 3 h 7 v 6 h -7 v 3 h 7 v 5 H 24 z M 61.971,59 c 0,0 -22.971,0 -24.971,0 -2,0 -4,-2 -4,-4 0,-2 0,-32.97 0,-32.97 0,0 -0.065,-3.465 1.668,-6.825 C 36.849,10.977 40.464,9 45.953,9 h 8.009 c 0.072,0 7.423,-0.036 14.748,3.626 9.587,4.793 14.448,13.331 14.448,25.452 0,0.053 -0.031,5.265 -2.704,10.611 C 76.99,55.618 70.771,59 61.971,59 z"
   id="path5"
   style="display:inline" />
</g>
<g
   transform="translate(0,300)"
   id="Layer_2"
   style="display:none">
	<path
   d="M 95.291,45.163 C 95.287,45.064 95.283,44.96 95.262,44.86 95.244,44.756 95.211,44.654 95.182,44.559 95.166,44.497 95.159,44.434 95.136,44.373 l -11.168,-29.92 0.443,-0.055 c 1.542,-0.191 2.636,-1.597 2.444,-3.137 C 86.658,9.717 85.247,8.621 83.71,8.818 l -3.602,0.45 c -0.006,0 -0.011,-0.001 -0.017,-0.001 -0.214,0.001 -0.485,0.034 -0.69,0.082 L 53,12.639 V 11.608 C 53,10.053 51.555,8.794 49.999,8.794 48.444,8.794 47,10.054 47,11.608 v 1.735 l -26.903,3.393 c -0.06,0.007 0.006,0.012 -0.053,0.022 l -3.891,0.495 c -1.545,0.192 -2.606,1.6 -2.413,3.142 0.172,1.386 1.347,2.402 2.698,2.453 L 5.477,52.825 c -0.021,0.062 -0.025,0.125 -0.042,0.187 -0.029,0.097 -0.056,0.193 -0.073,0.293 -0.021,0.104 -0.027,0.203 -0.031,0.304 -0.004,0.061 -0.019,0.122 -0.019,0.187 0,0.036 0.002,0.064 0.002,0.095 0.002,0.028 0.004,0.057 0.007,0.086 0.104,8.448 6.99,15.286 15.46,15.286 8.472,0 15.368,-6.85 15.461,-15.296 0,-0.032 0.002,-0.062 0.002,-0.094 0,-0.026 0.003,-0.051 0.003,-0.077 0,-0.066 -0.013,-0.127 -0.016,-0.187 -0.008,-0.104 -0.01,-0.208 -0.032,-0.312 -0.016,-0.102 -0.046,-0.193 -0.077,-0.291 -0.015,-0.065 -0.025,-0.129 -0.049,-0.192 L 24.295,21.884 47,19.014 v 44.155 7.484 c 0,0.669 -0.326,14.08 -22.25,14.08 -1.556,0 -2.687,1.078 -2.687,2.632 0,1.556 1.382,2.635 2.937,2.635 h 50.624 c 0.006,0 0.009,0 0.015,0 0,0 0.005,0 0.01,0 0.002,0 0.004,0 0.006,0 0,0 0.001,0 0.008,0 0,0 0.002,0 0.005,0 h 0.002 0.004 c 1.53,0 2.765,-0.963 2.765,-2.502 C 78.439,85.945 77.186,85 75.631,85 H 75.627 C 75.402,85 53,84.521 53,70.667 V 63.169 18.311 L 75.68,15.482 64.535,44.34 c -0.028,0.068 -0.021,0.136 -0.039,0.202 -0.03,0.1 -0.057,0.194 -0.076,0.299 -0.023,0.108 -0.023,0.213 -0.027,0.322 -0.007,0.065 -0.018,0.128 -0.018,0.193 0,0.019 0.003,0.036 0.003,0.054 0,0.027 0.002,0.053 0.002,0.08 0.074,8.467 6.979,15.338 15.464,15.338 8.476,0 15.369,-6.854 15.461,-15.306 0,-0.029 0.002,-0.058 0.003,-0.084 0,-0.028 0.005,-0.055 0.005,-0.082 -0.001,-0.065 -0.015,-0.127 -0.022,-0.193 z M 12.148,51 20.69,27.662 29.387,51 H 12.148 z M 71.294,43 80.027,20.445 88.448,43 H 71.294 z"
   id="path8"
   style="display:inline" />
</g>

<g
   transform="translate(0,300)"
   id="Layer_4"
   style="display:none">
	<path
   d="m 78.724,11 0,0 H 35 V 26.67 C 31,28.2 12.783,37 12.355,63 H 5 V 87 H 63.404 65.639 95 V 11 H 78.724 z M 7,85 V 65 h 8 V 64.023 C 15,35.738 35.483,28.524 36.356,28.231 L 37,28.012 V 13 H 79 V 63 H 63 V 85 H 7 z"
   id="path18"
   style="display:inline" />
	<rect
   width="29.360001"
   height="7.3400002"
   x="42.664001"
   y="19.983999"
   id="rect20"
   style="display:inline" />
	<circle
   cx="36.257"
   cy="36.965"
   r="3.6700001"
   id="circle22"
   style="display:inline"
   d="m 39.927,36.965 c 0,2.026885 -1.643115,3.67 -3.67,3.67 -2.026885,0 -3.67,-1.643115 -3.67,-3.67 0,-2.026885 1.643115,-3.67 3.67,-3.67 2.026885,0 3.67,1.643115 3.67,3.67 z" />
	<circle
   cx="50.936001"
   cy="36.965"
   r="3.6689999"
   id="circle24"
   style="display:inline"
   d="m 54.605001,36.965 c 0,2.026333 -1.642667,3.669 -3.669,3.669 -2.026333,0 -3.669,-1.642667 -3.669,-3.669 0,-2.026333 1.642667,-3.669 3.669,-3.669 2.026333,0 3.669,1.642667 3.669,3.669 z" />
	<circle
   cx="65.615997"
   cy="36.965"
   r="3.6700001"
   id="circle26"
   style="display:inline"
   d="m 69.285997,36.965 c 0,2.026885 -1.643115,3.67 -3.67,3.67 -2.026885,0 -3.67,-1.643115 -3.67,-3.67 0,-2.026885 1.643115,-3.67 3.67,-3.67 2.026885,0 3.67,1.643115 3.67,3.67 z" />
	<circle
   cx="30.285999"
   cy="47.042"
   r="3.6700001"
   id="circle28"
   style="display:inline"
   d="m 33.955999,47.042 c 0,2.026885 -1.643115,3.67 -3.67,3.67 -2.026885,0 -3.67,-1.643115 -3.67,-3.67 0,-2.026885 1.643115,-3.67 3.67,-3.67 2.026885,0 3.67,1.643115 3.67,3.67 z" />
	<circle
   cx="44.965"
   cy="47.042"
   r="3.6700001"
   id="circle30"
   style="display:inline"
   d="m 48.635,47.042 c 0,2.026885 -1.643115,3.67 -3.67,3.67 -2.026885,0 -3.67,-1.643115 -3.67,-3.67 0,-2.026885 1.643115,-3.67 3.67,-3.67 2.026885,0 3.67,1.643115 3.67,3.67 z" />
	<circle
   cx="59.645"
   cy="47.042"
   r="3.6700001"
   id="circle32"
   style="display:inline"
   d="m 63.315001,47.042 c 0,2.026885 -1.643115,3.67 -3.670001,3.67 -2.026885,0 -3.67,-1.643115 -3.67,-3.67 0,-2.026885 1.643115,-3.67 3.67,-3.67 2.026886,0 3.670001,1.643115 3.670001,3.67 z" />
	<circle
   cx="24.313999"
   cy="57.118"
   r="3.6700001"
   id="circle34"
   style="display:inline"
   d="m 27.983999,57.118 c 0,2.026885 -1.643115,3.67 -3.67,3.67 -2.026885,0 -3.67,-1.643115 -3.67,-3.67 0,-2.026885 1.643115,-3.67 3.67,-3.67 2.026885,0 3.67,1.643115 3.67,3.67 z" />
	<circle
   cx="38.993999"
   cy="57.118"
   r="3.6700001"
   id="circle36"
   style="display:inline"
   d="m 42.664,57.118 c 0,2.026885 -1.643115,3.67 -3.670001,3.67 -2.026885,0 -3.67,-1.643115 -3.67,-3.67 0,-2.026885 1.643115,-3.67 3.67,-3.67 2.026886,0 3.670001,1.643115 3.670001,3.67 z" />
	<circle
   cx="53.674"
   cy="57.118"
   r="3.6700001"
   id="circle38"
   style="display:inline"
   d="m 57.344,57.118 c 0,2.026885 -1.643115,3.67 -3.67,3.67 -2.026885,0 -3.67,-1.643115 -3.67,-3.67 0,-2.026885 1.643115,-3.67 3.67,-3.67 2.026885,0 3.67,1.643115 3.67,3.67 z" />
</g>
<path
   inkscape:connector-curvature="0"
   style="fill:#000000;stroke:#9c5d2e;stroke-width:0;stroke-miterlimit:4;stroke-opacity:0.59130435;stroke-dasharray:none"
   id="path3805"
   d="m 392.55161,200.83585 a 192.5809,196.14721 0 1 1 -385.161777,0 192.5809,196.14721 0 1 1 385.161777,0 z" /><path
   id="rect3027"
   d="m 197.73871,61.248802 c -10.64283,-0.2237 -16.24626,15.93207 -2.75224,19.90783 0.98112,0.39244 1.74106,0.65995 2.6605,1.00915 l -0.18349,40.457838 -8.34844,-0.18348 0,5.41273 -3.94487,0 0,7.43103 4.95402,0 0,31.6507 c -2.4741,2.57673 -4.48404,6.06028 -5.77969,10.18326 -14.63393,2.12851 -32.80968,-2.25891 -38.3478,16.69689 -0.95384,0.0913 -1.80476,0.76831 -2.11004,1.74308 -0.4071,1.2997 0.25981,2.62039 1.5596,3.02746 l 15.22903,4.77054 c 1.29967,0.40706 2.7121,-0.25981 3.11919,-1.5596 0.27684,-0.8838 0.0426,-1.85188 -0.55044,-2.47701 1.62404,-6.05768 12.83527,-2.50995 20.45827,-2.56875 1.21524,5.14073 3.4869,9.51181 6.42188,12.56853 l 0,107.52062 -12.20157,0 0,11.74287 44.03575,0 0,-11.74287 -12.20157,0 0,-107.52062 c 4.47544,-4.66109 7.43103,-12.40041 7.43103,-21.1922 0,-8.7918 -2.95559,-16.53111 -7.43103,-21.1922 l 0,-31.6507 4.95402,0 0,-2.47701 0.27507,0 c 13.72524,0 3.43711,-25.79796 6.88059,-35.595558 2.0272,5.435358 2.66049,13.899678 2.66049,28.256268 -4.91679,78.6681 19.63261,98.29771 19.63261,152.38204 -0.41021,5.74954 8.46616,7.78593 9.8163,0 4.91677,-19.66705 -29.46608,-88.46418 -19.6326,-152.38204 5.5741,-36.231648 -4.90239,-54.110038 -34.40293,-63.943578 -0.75043,-0.16939 -1.49229,-0.26039 -2.20179,-0.27507 z m 2.0183,5.77969 c 2.43201,0 4.40358,1.97154 4.40358,4.40358 0,2.43203 -1.97157,4.40357 -4.40358,4.40357 -2.43203,0 -4.40357,-1.97154 -4.40357,-4.40357 0,-2.43204 1.97154,-4.40358 4.40357,-4.40358 z m 2.75224,16.97211 c 5.73357,2.04608 10.10083,3.51464 13.30246,5.59621 -2.0592,2.00551 -3.5779,4.8432 -3.5779,8.807148 l 0,12.29332 c 0,8.66018 -6.15881,9.79862 -9.8163,9.72456 l 0.0916,-36.421238 z m 20.36653,1.83483 c 1.33282,0 2.47701,1.05245 2.47701,2.38527 0,1.33284 -1.14419,2.47701 -2.47701,2.47701 -1.33284,0 -2.38527,-1.14417 -2.38527,-2.47701 0,-1.33282 1.05243,-2.38527 2.38527,-2.38527 z"
   style="color:#000000;fill:#ffffff;stroke:none;stroke-width:0.13398452;marker:none;visibility:visible;display:inline;overflow:visible;enable-background:accumulate"
   inkscape:connector-curvature="0" /></svg>